<svg width="15" height="21" viewBox="0 0 15 21" fill="none" xmlns="http://www.w3.org/2000/svg">
<path d="M7.5 0.5C3.62297 0.5 0.46875 3.65422 0.46875 7.53125C0.46875 8.84117 0.831602 10.1195 1.51832 11.2286L7.09977 20.223C7.15233 20.3077 7.22564 20.3776 7.31276 20.4261C7.39988 20.4746 7.49792 20.5 7.59762 20.5H7.60227C7.70274 20.4992 7.80133 20.4726 7.88855 20.4227C7.97577 20.3728 8.04869 20.3014 8.10031 20.2152L13.5395 11.1336C14.1883 10.048 14.5312 8.80231 14.5312 7.53125C14.5312 3.65422 11.377 0.5 7.5 0.5ZM12.5338 10.532L7.58875 18.7885L2.51434 10.6112C1.94273 9.68805 1.63281 8.62305 1.63281 7.53125C1.63281 4.30039 4.26914 1.66406 7.5 1.66406C10.7309 1.66406 13.3633 4.30039 13.3633 7.53125C13.3633 8.59066 13.0738 9.62844 12.5338 10.532Z" fill="black"/>
<path d="M7.5 4.01562C5.56148 4.01562 3.98438 5.59273 3.98438 7.53125C3.98438 9.45738 5.53582 11.0469 7.5 11.0469C9.4884 11.0469 11.0156 9.43621 11.0156 7.53125C11.0156 5.59273 9.43852 4.01562 7.5 4.01562ZM7.5 9.88281C6.2009 9.88281 5.14844 8.82684 5.14844 7.53125C5.14844 6.23891 6.20766 5.17969 7.5 5.17969C8.79234 5.17969 9.84766 6.23891 9.84766 7.53125C9.84766 8.80793 8.81969 9.88281 7.5 9.88281Z" fill="black"/>
</svg>
