<svg width="51" height="50" viewBox="0 0 51 50" fill="none" xmlns="http://www.w3.org/2000/svg">
<g clip-path="url(#clip0_290_31912)">
<path fill-rule="evenodd" clip-rule="evenodd" d="M0.652344 6.17969C0.835938 5.92578 5.26562 0 12.5312 0C20.3125 0 23.9375 4.46875 23.9375 14.0625V47.6562C23.9375 48.2779 23.6906 48.874 23.251 49.3135C22.8115 49.7531 22.2154 50 21.5938 50H18.4688C17.8471 50 17.251 49.7531 16.8115 49.3135C16.3719 48.874 16.125 48.2779 16.125 47.6562V21.5586C15.0012 21.9901 13.8126 22.2291 12.6094 22.2656C10.3066 22.2665 8.03358 21.7453 5.96122 20.7413C3.88886 19.7372 2.07107 18.2764 0.644531 16.4688C0.550431 16.3364 0.499913 16.178 0.5 16.0156V6.64062C0.500545 6.4747 0.553903 6.31326 0.652344 6.17969ZM22.1462 48.2087C22.2927 48.0622 22.375 47.8634 22.375 47.6562V14.0625C22.375 5.30078 19.4297 1.5625 12.5312 1.5625C6.75 1.5625 2.86328 5.93359 2.0625 6.91016V15.7461C3.35913 17.2839 4.97301 18.5232 6.79348 19.3788C8.61395 20.2344 10.5979 20.6862 12.6094 20.7031C13.8206 20.6488 15.0118 20.3748 16.125 19.8945V19.5312C16.125 18.9096 15.8781 18.3135 15.4385 17.874C14.999 17.4344 14.4029 17.1875 13.7812 17.1875C13.574 17.1875 13.3753 17.1052 13.2288 16.9587C13.0823 16.8122 13 16.6135 13 16.4062C13 16.199 13.0823 16.0003 13.2288 15.8538C13.3753 15.7073 13.574 15.625 13.7812 15.625C14.8173 15.625 15.8108 16.0365 16.5434 16.7691C17.276 17.5017 17.6875 18.4952 17.6875 19.5312V47.6562C17.6875 47.8634 17.7698 48.0622 17.9163 48.2087C18.0628 48.3552 18.2615 48.4375 18.4688 48.4375H21.5938C21.801 48.4375 21.9997 48.3552 22.1462 48.2087Z" fill="black"/>
<path fill-rule="evenodd" clip-rule="evenodd" d="M38.4687 0C45.7344 0 50.1641 5.92578 50.3477 6.17969C50.4461 6.31326 50.4995 6.4747 50.5 6.64062V16.0156C50.5001 16.178 50.4496 16.3364 50.3555 16.4688C48.9289 18.2764 47.1111 19.7372 45.0388 20.7413C42.9664 21.7453 40.6934 22.2665 38.3906 22.2656C37.1874 22.2291 35.9988 21.9901 34.875 21.5586V47.6562C34.875 48.2779 34.6281 48.874 34.1885 49.3135C33.749 49.7531 33.1529 50 32.5312 50H29.4062C28.7846 50 28.1885 49.7531 27.749 49.3135C27.3094 48.874 27.0625 48.2779 27.0625 47.6562V14.0625C27.0625 4.46875 30.6875 0 38.4687 0ZM44.2089 19.3866C46.03 18.5314 47.6434 17.2905 48.9375 15.75V6.91016C48.1563 5.9375 44.25 1.5625 38.4687 1.5625C31.5703 1.5625 28.625 5.30078 28.625 14.0625V47.6562C28.625 47.8634 28.7073 48.0622 28.8538 48.2087C29.0003 48.3552 29.199 48.4375 29.4062 48.4375H32.5312C32.7385 48.4375 32.9372 48.3552 33.0837 48.2087C33.2302 48.0622 33.3125 47.8634 33.3125 47.6562V19.5312C33.3125 18.4952 33.7241 17.5017 34.4566 16.7691C35.1892 16.0366 36.1827 15.625 37.2188 15.625C37.426 15.625 37.6247 15.7073 37.7712 15.8538C37.9177 16.0003 38 16.199 38 16.4062C38 16.6135 37.9177 16.8122 37.7712 16.9587C37.6247 17.1052 37.426 17.1875 37.2188 17.1875C36.5971 17.1875 36.001 17.4344 35.5615 17.874C35.1219 18.3135 34.875 18.9096 34.875 19.5312V19.8945C35.9882 20.3748 37.1794 20.6488 38.3906 20.7031C40.4025 20.6911 42.3878 20.2419 44.2089 19.3866Z" fill="black"/>
</g>
<defs>
<clipPath id="clip0_290_31912">
<rect width="50" height="50" fill="white" transform="translate(0.5)"/>
</clipPath>
</defs>
</svg>
