<svg width="20" height="20" viewBox="0 0 20 20" fill="none" xmlns="http://www.w3.org/2000/svg">
<g clip-path="url(#clip0_408_1081)">
<path d="M11.1049 10.0003L19.7712 1.33398C20.0763 1.02886 20.0763 0.534174 19.7712 0.229097C19.4661 -0.0759807 18.9714 -0.0760198 18.6663 0.229097L9.99999 8.89541L1.33372 0.229097C1.0286 -0.0760198 0.533915 -0.0760198 0.228837 0.229097C-0.0762401 0.534213 -0.0762791 1.0289 0.228837 1.33398L8.89511 10.0002L0.228837 18.6666C-0.0762791 18.9717 -0.0762791 19.4664 0.228837 19.7714C0.30131 19.8441 0.387426 19.9017 0.482236 19.941C0.577045 19.9802 0.678679 20.0004 0.781297 20.0002C0.883915 20.0004 0.985548 19.9802 1.08036 19.941C1.17517 19.9017 1.26128 19.8441 1.33376 19.7714L9.99999 11.1052L18.6663 19.7714C18.8188 19.924 19.0188 20.0002 19.2187 20.0002C19.4187 20.0002 19.6186 19.924 19.7712 19.7714C20.0763 19.4663 20.0763 18.9716 19.7712 18.6666L11.1049 10.0003Z" fill="#757575"/>
</g>
<defs>
<clipPath id="clip0_408_1081">
<rect width="20" height="20" fill="white"/>
</clipPath>
</defs>
</svg>
