<svg width="40" height="40" viewBox="0 0 40 40" fill="none" xmlns="http://www.w3.org/2000/svg">
<path d="M39.6825 25.2698C39.6825 22.1587 37.9047 19.4285 35.1746 18.1587C35.873 17.3333 36.3174 16.3174 36.3174 15.1746C36.3174 12.6984 34.2857 10.6666 31.8095 10.6666C29.3333 10.6666 27.3015 12.6984 27.3015 15.1746C27.3015 16.3174 27.746 17.3968 28.4444 18.1587C27.746 18.4762 27.1111 18.9206 26.5396 19.4285C25.7777 18.7936 24.9523 18.2857 24 17.8412C25.0158 16.8254 25.6507 15.365 25.6507 13.8412C25.6507 10.6666 23.1111 8.12695 19.9365 8.12695C16.7619 8.12695 14.2222 10.6666 14.2222 13.8412C14.2222 15.4285 14.8571 16.8254 15.873 17.8412C14.9206 18.2222 14.0952 18.7936 13.3333 19.4285C12.7619 18.9206 12.1269 18.4762 11.4285 18.1587C12.1269 17.3333 12.5714 16.3174 12.5714 15.1746C12.5714 12.6984 10.5396 10.6666 8.06345 10.6666C5.58726 10.6666 3.55551 12.6984 3.55551 15.1746C3.55551 16.3174 3.99995 17.3968 4.69837 18.1587C1.96821 19.4285 0.19043 22.1587 0.19043 25.2698V25.9047H9.77773C9.71424 26.3492 9.71424 26.7301 9.71424 27.1746C9.71424 28.8254 10.0952 29.9682 10.9206 30.7301C12.2539 32 14.4761 31.873 17.0793 31.746C17.9682 31.6825 18.9206 31.619 19.873 31.619C20.8254 31.619 21.7777 31.6825 22.6666 31.746C23.4285 31.8095 27.3015 32.3174 28.8254 30.7301C29.5873 29.9682 30.0317 28.8254 30.0317 27.1746C30.0317 26.7301 29.9682 26.3492 29.9682 25.9047H39.619V25.2698H39.6825ZM31.8095 12C33.5873 12 35.0476 13.4603 35.0476 15.2381C35.0476 17.0158 33.5873 18.4127 31.8095 18.4127C30.0317 18.4127 28.5714 16.9523 28.5714 15.1746C28.5714 13.3968 30.0317 12 31.8095 12ZM15.5555 13.8412C15.5555 11.365 17.5238 9.39679 20 9.39679C22.4761 9.39679 24.4444 11.365 24.4444 13.8412C24.4444 16.3174 22.4761 18.2857 20 18.2857C17.5238 18.2857 15.5555 16.3174 15.5555 13.8412ZM8.19043 12C9.96821 12 11.4285 13.4603 11.4285 15.2381C11.4285 17.0158 9.96821 18.4127 8.19043 18.4127C6.41265 18.4127 4.95233 16.9523 4.95233 15.1746C4.95233 13.3968 6.41265 12 8.19043 12ZM10.0952 24.6349H1.58726C1.84122 22.0952 3.49202 19.9365 5.96821 19.0476C6.60313 19.4285 7.36503 19.619 8.19043 19.619C9.01583 19.619 9.71424 19.4285 10.4127 19.0476C11.1746 19.3016 11.873 19.746 12.5079 20.2539C11.365 21.5238 10.5396 23.0476 10.0952 24.6349ZM28.0634 29.8412C27.1111 30.7301 25.1428 30.6031 22.8571 30.5397C21.9682 30.4762 21.0158 30.4127 20 30.4127C18.9841 30.4127 18.0317 30.4762 17.1428 30.5397C14.8571 30.6666 12.8888 30.7936 11.9365 29.8412C11.4285 29.3333 11.1746 28.5079 11.1746 27.2381C11.1746 23.4285 13.5873 20.0635 17.2063 18.7936C18.0317 19.3016 19.0476 19.5555 20.0634 19.5555C21.1428 19.5555 22.0952 19.2381 22.9206 18.7936C26.5396 20 28.9523 23.3651 28.9523 27.2381C28.8888 28.4444 28.6349 29.3333 28.0634 29.8412ZM29.8412 24.6349C29.3968 22.9841 28.6349 21.5238 27.492 20.3174C28.1269 19.746 28.8254 19.365 29.6507 19.0476C30.2857 19.4285 31.0476 19.619 31.873 19.619C32.6984 19.619 33.3968 19.4285 34.0952 19.0476C36.5079 19.9365 38.2222 22.0952 38.4761 24.6349H29.8412Z" fill="#CF0A2C"/>
</svg>
