<svg width="33" height="32" viewBox="0 0 33 32" fill="none" xmlns="http://www.w3.org/2000/svg">
<path fill-rule="evenodd" clip-rule="evenodd" d="M16.5 0C7.66344 0 0.5 7.16344 0.5 16C0.5 24.8366 7.66344 32 16.5 32C25.3366 32 32.5 24.8366 32.5 16C32.5 7.16344 25.3366 0 16.5 0ZM12.9822 7.51822C13.8924 7.4768 14.1833 7.46667 16.5008 7.46667H16.4981C18.8164 7.46667 19.1062 7.4768 20.0164 7.51822C20.9248 7.55982 21.5453 7.70365 22.0893 7.91467C22.6511 8.13245 23.1258 8.42401 23.6004 8.89868C24.0751 9.373 24.3667 9.84909 24.5853 10.4103C24.7951 10.9529 24.9391 11.573 24.9818 12.4815C25.0227 13.3917 25.0333 13.6826 25.0333 16.0001C25.0333 18.3176 25.0227 18.6078 24.9818 19.518C24.9391 20.4261 24.7951 21.0464 24.5853 21.5891C24.3667 22.1502 24.0751 22.6263 23.6004 23.1006C23.1263 23.5753 22.6509 23.8675 22.0898 24.0855C21.5469 24.2965 20.9261 24.4404 20.0176 24.482C19.1074 24.5234 18.8174 24.5335 16.4997 24.5335C14.1824 24.5335 13.8917 24.5234 12.9815 24.482C12.0732 24.4404 11.4529 24.2965 10.91 24.0855C10.3491 23.8675 9.873 23.5753 9.39886 23.1006C8.92437 22.6263 8.63281 22.1502 8.41467 21.5889C8.20382 21.0464 8.06 20.4263 8.01822 19.5178C7.97698 18.6076 7.96667 18.3176 7.96667 16.0001C7.96667 13.6826 7.97733 13.3915 8.01804 12.4813C8.05893 11.5732 8.20294 10.9529 8.41449 10.4102C8.63316 9.84909 8.92472 9.373 9.39939 8.89868C9.87371 8.42419 10.3498 8.13263 10.9111 7.91467C11.4536 7.70365 12.0737 7.55982 12.9822 7.51822Z" fill="#B1B1B1"/>
<path fill-rule="evenodd" clip-rule="evenodd" d="M15.735 9.00457C15.8836 9.00434 16.0435 9.00441 16.2161 9.00449L16.5005 9.00457C18.7789 9.00457 19.049 9.01275 19.9487 9.05364C20.7807 9.09169 21.2323 9.23071 21.5331 9.34751C21.9313 9.50218 22.2152 9.68707 22.5137 9.98574C22.8124 10.2844 22.9973 10.5689 23.1523 10.9671C23.2691 11.2675 23.4083 11.7191 23.4462 12.5511C23.4871 13.4507 23.496 13.7209 23.496 15.9982C23.496 18.2756 23.4871 18.5458 23.4462 19.4454C23.4081 20.2774 23.2691 20.729 23.1523 21.0294C22.9976 21.4276 22.8124 21.7112 22.5137 22.0097C22.2151 22.3084 21.9315 22.4932 21.5331 22.6479C21.2326 22.7653 20.7807 22.9039 19.9487 22.942C19.0492 22.9829 18.7789 22.9917 16.5005 22.9917C14.2219 22.9917 13.9519 22.9829 13.0523 22.942C12.2203 22.9036 11.7687 22.7645 11.4677 22.6477C11.0695 22.4931 10.7851 22.3082 10.4864 22.0095C10.1877 21.7108 10.0028 21.4271 9.84782 21.0287C9.73102 20.7283 9.59182 20.2767 9.55395 19.4447C9.51306 18.5451 9.50488 18.2749 9.50488 15.9961C9.50488 13.7173 9.51306 13.4485 9.55395 12.549C9.59199 11.717 9.73102 11.2654 9.84782 10.9646C10.0025 10.5664 10.1877 10.2819 10.4864 9.98325C10.7851 9.68458 11.0695 9.49969 11.4677 9.34467C11.7686 9.22733 12.2203 9.08866 13.0523 9.05044C13.8395 9.01489 14.1446 9.00422 15.735 9.00244V9.00457ZM21.0556 10.4215C20.4902 10.4215 20.0316 10.8796 20.0316 11.4451C20.0316 12.0105 20.4902 12.4691 21.0556 12.4691C21.6209 12.4691 22.0796 12.0105 22.0796 11.4451C22.0796 10.8798 21.6209 10.4211 21.0556 10.4211V10.4215ZM12.1182 16.0002C12.1182 13.5801 14.0803 11.618 16.5003 11.6179C18.9204 11.6179 20.8821 13.5801 20.8821 16.0002C20.8821 18.4203 18.9206 20.3816 16.5005 20.3816C14.0804 20.3816 12.1182 18.4203 12.1182 16.0002Z" fill="#B1B1B1"/>
<path d="M16.5007 13.1555C18.0716 13.1555 19.3452 14.429 19.3452 16C19.3452 17.5709 18.0716 18.8445 16.5007 18.8445C14.9297 18.8445 13.6562 17.5709 13.6562 16C13.6562 14.429 14.9297 13.1555 16.5007 13.1555Z" fill="#B1B1B1"/>
</svg>
