<svg width="36" height="26" viewBox="0 0 36 26" fill="none" xmlns="http://www.w3.org/2000/svg">
<path d="M1.72453 0.49262C1.40223 0.520582 1.10327 0.672224 0.890316 0.915756C0.67736 1.15929 0.566945 1.4758 0.582217 1.79895C0.597488 2.1221 0.737261 2.42679 0.972235 2.64916C1.20721 2.87152 1.51914 2.99429 1.84264 2.99173H34.3453C34.6773 2.99173 34.9958 2.85984 35.2305 2.62506C35.4653 2.39028 35.5972 2.07185 35.5972 1.73982C35.5972 1.40779 35.4653 1.08936 35.2305 0.854575C34.9958 0.619795 34.6773 0.487896 34.3453 0.487896H1.84736C1.80644 0.485887 1.76545 0.490611 1.72453 0.49262ZM1.72453 11.7363C1.3925 11.7519 1.08029 11.8989 0.856589 12.1447C0.632883 12.3906 0.516005 12.7152 0.531667 13.0472C0.547329 13.3793 0.694247 13.6915 0.940102 13.9152C1.18596 14.1389 1.51061 14.2558 1.84264 14.2401H34.3453C34.5097 14.2401 34.6725 14.2077 34.8244 14.1448C34.9763 14.0819 35.1143 13.9897 35.2305 13.8734C35.3468 13.7572 35.439 13.6192 35.5019 13.4673C35.5648 13.3154 35.5972 13.1526 35.5972 12.9882C35.5972 12.8238 35.5648 12.661 35.5019 12.5091C35.439 12.3572 35.3468 12.2192 35.2305 12.103C35.1143 11.9867 34.9763 11.8945 34.8244 11.8316C34.6725 11.7687 34.5097 11.7363 34.3453 11.7363H1.84736C1.80644 11.7343 1.76545 11.7343 1.72453 11.7363ZM1.84264 22.9846C1.51061 22.9846 1.19218 23.1165 0.957398 23.3513C0.722618 23.5861 0.59072 23.9045 0.59072 24.2366C0.59072 24.5686 0.722618 24.887 0.957398 25.1218C1.19218 25.3566 1.51061 25.4885 1.84264 25.4885H34.3453C34.6773 25.4885 34.9958 25.3566 35.2305 25.1218C35.4653 24.887 35.5972 24.5686 35.5972 24.2366C35.5972 23.9045 35.4653 23.5861 35.2305 23.3513C34.9958 23.1165 34.6773 22.9846 34.3453 22.9846H1.84264Z" fill="black"/>
</svg>
