<svg width="21" height="21" viewBox="0 0 21 21" fill="none" xmlns="http://www.w3.org/2000/svg">
<path d="M10.5 0.5C4.9871 0.5 0.5 4.9871 0.5 10.5C0.5 16.0129 4.9871 20.5 10.5 20.5C16.0129 20.5 20.5 16.0129 20.5 10.5C20.5 4.9871 16.0129 0.5 10.5 0.5ZM10.5 19.2097C5.69677 19.2097 1.79032 15.3032 1.79032 10.5C1.79032 5.69677 5.69677 1.79032 10.5 1.79032C15.3032 1.79032 19.2097 5.69677 19.2097 10.5C19.2097 15.3032 15.3032 19.2097 10.5 19.2097Z" fill="black"/>
<path d="M13.4045 10.1774H10.5013V5.66129C10.5013 5.30645 10.2109 5.01613 9.8561 5.01613C9.50126 5.01613 9.21094 5.30645 9.21094 5.66129V10.8226C9.21094 11.1774 9.50126 11.4677 9.8561 11.4677H13.4045C13.7593 11.4677 14.0496 11.1774 14.0496 10.8226C14.0496 10.4677 13.7593 10.1774 13.4045 10.1774Z" fill="black"/>
</svg>
