<svg width="41" height="40" viewBox="0 0 41 40" fill="none" xmlns="http://www.w3.org/2000/svg">
<g clip-path="url(#clip0_453_1754)">
<path d="M40.4282 10.9091V3.63639C40.4282 1.63083 38.7974 0 36.7919 0H4.06462C2.05905 0 0.428223 1.63083 0.428223 3.63639V10.9091C0.428223 12.0004 0.921178 12.9695 1.68456 13.6364C0.921178 14.3034 0.428223 15.2723 0.428223 16.3636V23.6364C0.428223 24.7277 0.921178 25.6966 1.68456 26.3636C0.921178 27.0306 0.428223 27.9997 0.428223 29.0909V36.3636C0.428223 38.3691 2.05905 40 4.06462 40H36.7919C38.7974 40 40.4283 38.3692 40.4283 36.3636V29.0909C40.4283 27.9996 39.9353 27.0306 39.172 26.3636C39.9353 25.6966 40.4283 24.7277 40.4283 23.6364V16.3636C40.4283 15.2723 39.9353 14.3034 39.172 13.6364C39.9353 12.9694 40.4282 12.0004 40.4282 10.9091ZM38.6101 36.3637C38.6101 37.366 37.7942 38.1818 36.7919 38.1818H4.06462C3.06234 38.1818 2.24646 37.366 2.24646 36.3637V29.091C2.24646 28.0887 3.06234 27.2728 4.06462 27.2728H36.7919C37.7942 27.2728 38.6101 28.0887 38.6101 29.091V36.3637ZM38.6101 23.6364C38.6101 24.6386 37.7942 25.4545 36.7919 25.4545H4.06462C3.06234 25.4545 2.24646 24.6386 2.24646 23.6364V16.3636C2.24646 15.3614 3.06234 14.5455 4.06462 14.5455H36.7919C37.7942 14.5455 38.6101 15.3614 38.6101 16.3636V23.6364ZM38.6101 10.9091C38.6101 11.9114 37.7942 12.7273 36.7919 12.7273H4.06462C3.06234 12.7273 2.24646 11.9114 2.24646 10.9091V3.63639C2.24646 2.63412 3.06234 1.81824 4.06462 1.81824H36.7919C37.7942 1.81824 38.6101 2.63412 38.6101 3.63639V10.9091Z" fill="#CF0A2C"/>
<path d="M6.79193 3.63647C6.67253 3.6364 6.55428 3.65986 6.44395 3.70551C6.33363 3.75116 6.23338 3.81812 6.14894 3.90254C6.06451 3.98697 5.99754 4.08721 5.95188 4.19754C5.90621 4.30786 5.88275 4.42611 5.88281 4.54551V10.0001C5.88281 10.5026 6.28943 10.9092 6.79193 10.9092C7.29443 10.9092 7.70105 10.5026 7.70105 10.0001V4.54551C7.70111 4.42611 7.67763 4.30787 7.63196 4.19755C7.58629 4.08723 7.51933 3.98699 7.4349 3.90257C7.35047 3.81815 7.25022 3.75119 7.1399 3.70553C7.02957 3.65987 6.91133 3.63641 6.79193 3.63647ZM10.4282 3.63647C10.3088 3.6364 10.1906 3.65986 10.0802 3.70552C9.96991 3.75118 9.86966 3.81814 9.78522 3.90257C9.70079 3.98701 9.63382 4.08726 9.58817 4.1976C9.54251 4.30793 9.51904 4.42619 9.51912 4.54559V10.0001C9.51904 10.1196 9.54251 10.2378 9.58817 10.3481C9.63382 10.4585 9.70079 10.5587 9.78522 10.6432C9.86966 10.7276 9.96991 10.7946 10.0802 10.8402C10.1906 10.8859 10.3088 10.9093 10.4282 10.9093C10.5477 10.9093 10.6659 10.8859 10.7762 10.8402C10.8866 10.7946 10.9868 10.7276 11.0713 10.6432C11.1557 10.5587 11.2227 10.4585 11.2683 10.3481C11.314 10.2378 11.3374 10.1196 11.3374 10.0001V4.54559C11.3374 4.42619 11.314 4.30793 11.2683 4.1976C11.2227 4.08726 11.1557 3.98701 11.0713 3.90257C10.9868 3.81814 10.8866 3.75118 10.7762 3.70552C10.6659 3.65986 10.5477 3.6364 10.4282 3.63647ZM14.0646 3.63647C13.9452 3.6364 13.827 3.65986 13.7166 3.70552C13.6063 3.75118 13.5061 3.81814 13.4216 3.90257C13.3372 3.98701 13.2702 4.08726 13.2246 4.1976C13.1789 4.30793 13.1554 4.42619 13.1555 4.54559V10.0001C13.1554 10.1196 13.1789 10.2378 13.2246 10.3481C13.2702 10.4585 13.3372 10.5587 13.4216 10.6432C13.5061 10.7276 13.6063 10.7946 13.7166 10.8402C13.827 10.8859 13.9452 10.9093 14.0646 10.9093C14.184 10.9093 14.3023 10.8859 14.4126 10.8402C14.523 10.7946 14.6232 10.7276 14.7077 10.6432C14.7921 10.5587 14.8591 10.4585 14.9047 10.3481C14.9504 10.2378 14.9738 10.1196 14.9738 10.0001V4.54559C14.9738 4.42619 14.9504 4.30793 14.9047 4.1976C14.8591 4.08726 14.7921 3.98701 14.7077 3.90257C14.6232 3.81814 14.523 3.75118 14.4126 3.70552C14.3023 3.65986 14.184 3.6364 14.0646 3.63647Z" fill="#CF0A2C"/>
<path d="M33.1556 9.0909C34.1597 9.0909 34.9737 8.27688 34.9737 7.27274C34.9737 6.26861 34.1597 5.45459 33.1556 5.45459C32.1514 5.45459 31.3374 6.26861 31.3374 7.27274C31.3374 8.27688 32.1514 9.0909 33.1556 9.0909Z" fill="#CF0A2C"/>
<path d="M27.701 9.0909C28.7051 9.0909 29.5191 8.27688 29.5191 7.27274C29.5191 6.26861 28.7051 5.45459 27.701 5.45459C26.6968 5.45459 25.8828 6.26861 25.8828 7.27274C25.8828 8.27688 26.6968 9.0909 27.701 9.0909Z" fill="#CF0A2C"/>
<path d="M6.79193 16.3638C6.67252 16.3637 6.55427 16.3872 6.44393 16.4328C6.3336 16.4785 6.23335 16.5454 6.14891 16.6299C6.06448 16.7143 5.99752 16.8146 5.95186 16.9249C5.9062 17.0352 5.88273 17.1535 5.88281 17.2729V22.7274C5.88281 23.2299 6.28943 23.6366 6.79193 23.6366C7.29443 23.6366 7.70105 23.2299 7.70105 22.7274V17.2729C7.70111 17.1535 7.67763 17.0352 7.63196 16.9249C7.5863 16.8146 7.51933 16.7144 7.4349 16.6299C7.35047 16.5455 7.25023 16.4785 7.1399 16.4329C7.02958 16.3872 6.91134 16.3637 6.79193 16.3638ZM10.4282 16.3638C10.3088 16.3637 10.1906 16.3872 10.0802 16.4328C9.96991 16.4785 9.86966 16.5454 9.78522 16.6299C9.70079 16.7143 9.63383 16.8146 9.58817 16.9249C9.54251 17.0352 9.51904 17.1535 9.51912 17.2729V22.7274C9.51904 22.8468 9.54251 22.9651 9.58817 23.0754C9.63383 23.1858 9.70079 23.286 9.78522 23.3705C9.86966 23.4549 9.96991 23.5219 10.0802 23.5675C10.1906 23.6132 10.3088 23.6366 10.4282 23.6366C10.5477 23.6366 10.6659 23.6132 10.7762 23.5675C10.8866 23.5219 10.9868 23.4549 11.0713 23.3705C11.1557 23.286 11.2227 23.1858 11.2683 23.0754C11.314 22.9651 11.3374 22.8468 11.3374 22.7274V17.2729C11.3374 17.1535 11.314 17.0352 11.2683 16.9249C11.2227 16.8146 11.1557 16.7143 11.0713 16.6299C10.9868 16.5454 10.8866 16.4785 10.7762 16.4328C10.6659 16.3872 10.5477 16.3637 10.4282 16.3638ZM14.0646 16.3638C13.9452 16.3637 13.827 16.3872 13.7166 16.4328C13.6063 16.4785 13.5061 16.5454 13.4216 16.6299C13.3372 16.7143 13.2702 16.8146 13.2246 16.9249C13.1789 17.0352 13.1554 17.1535 13.1555 17.2729V22.7274C13.1554 22.8468 13.1789 22.9651 13.2246 23.0754C13.2702 23.1858 13.3372 23.286 13.4216 23.3705C13.5061 23.4549 13.6063 23.5219 13.7166 23.5675C13.827 23.6132 13.9452 23.6366 14.0646 23.6366C14.184 23.6366 14.3023 23.6132 14.4126 23.5675C14.523 23.5219 14.6232 23.4549 14.7077 23.3705C14.7921 23.286 14.8591 23.1858 14.9047 23.0754C14.9504 22.9651 14.9738 22.8468 14.9738 22.7274V17.2729C14.9738 17.1535 14.9504 17.0352 14.9047 16.9249C14.8591 16.8146 14.7921 16.7143 14.7077 16.6299C14.6232 16.5454 14.523 16.4785 14.4126 16.4328C14.3023 16.3872 14.184 16.3637 14.0646 16.3638Z" fill="#CF0A2C"/>
<path d="M33.1556 21.8182C34.1597 21.8182 34.9737 21.0042 34.9737 20C34.9737 18.9959 34.1597 18.1819 33.1556 18.1819C32.1514 18.1819 31.3374 18.9959 31.3374 20C31.3374 21.0042 32.1514 21.8182 33.1556 21.8182Z" fill="#CF0A2C"/>
<path d="M27.701 21.8182C28.7051 21.8182 29.5191 21.0042 29.5191 20C29.5191 18.9959 28.7051 18.1819 27.701 18.1819C26.6968 18.1819 25.8828 18.9959 25.8828 20C25.8828 21.0042 26.6968 21.8182 27.701 21.8182Z" fill="#CF0A2C"/>
<path d="M6.79193 29.0908C6.67252 29.0907 6.55427 29.1142 6.44393 29.1599C6.3336 29.2055 6.23335 29.2725 6.14891 29.3569C6.06448 29.4414 5.99752 29.5416 5.95186 29.6519C5.9062 29.7623 5.88273 29.8805 5.88281 29.9999V35.4545C5.88281 35.957 6.28943 36.3636 6.79193 36.3636C7.29443 36.3636 7.70097 35.957 7.70097 35.4545V29.9999C7.70105 29.8805 7.67759 29.7623 7.63193 29.652C7.58628 29.5416 7.51932 29.4414 7.4349 29.357C7.35047 29.2725 7.25023 29.2056 7.1399 29.1599C7.02958 29.1142 6.91133 29.0908 6.79193 29.0908ZM10.4282 29.0908C10.3088 29.0907 10.1906 29.1142 10.0802 29.1599C9.96991 29.2055 9.86966 29.2725 9.78522 29.3569C9.70079 29.4414 9.63383 29.5416 9.58817 29.6519C9.54251 29.7623 9.51904 29.8805 9.51912 29.9999V35.4545C9.51904 35.5739 9.54251 35.6922 9.58817 35.8025C9.63383 35.9128 9.70079 36.0131 9.78522 36.0975C9.86966 36.1819 9.96991 36.2489 10.0802 36.2946C10.1906 36.3402 10.3088 36.3637 10.4282 36.3636C10.5477 36.3637 10.6659 36.3402 10.7762 36.2946C10.8866 36.2489 10.9868 36.1819 11.0713 36.0975C11.1557 36.0131 11.2227 35.9128 11.2683 35.8025C11.314 35.6922 11.3374 35.5739 11.3374 35.4545V29.9999C11.3374 29.8805 11.314 29.7623 11.2683 29.6519C11.2227 29.5416 11.1557 29.4414 11.0713 29.3569C10.9868 29.2725 10.8866 29.2055 10.7762 29.1599C10.6659 29.1142 10.5477 29.0907 10.4282 29.0908ZM14.0646 29.0908C13.9452 29.0907 13.827 29.1142 13.7166 29.1599C13.6063 29.2055 13.5061 29.2725 13.4216 29.3569C13.3372 29.4414 13.2702 29.5416 13.2246 29.6519C13.1789 29.7623 13.1554 29.8805 13.1555 29.9999V35.4545C13.1554 35.5739 13.1789 35.6922 13.2246 35.8025C13.2702 35.9128 13.3372 36.0131 13.4216 36.0975C13.5061 36.1819 13.6063 36.2489 13.7166 36.2946C13.827 36.3402 13.9452 36.3637 14.0646 36.3636C14.184 36.3637 14.3023 36.3402 14.4126 36.2946C14.523 36.2489 14.6232 36.1819 14.7077 36.0975C14.7921 36.0131 14.8591 35.9128 14.9047 35.8025C14.9504 35.6922 14.9738 35.5739 14.9738 35.4545V29.9999C14.9738 29.8805 14.9504 29.7623 14.9047 29.6519C14.8591 29.5416 14.7921 29.4414 14.7077 29.3569C14.6232 29.2725 14.523 29.2055 14.4126 29.1599C14.3023 29.1142 14.184 29.0907 14.0646 29.0908Z" fill="#CF0A2C"/>
<path d="M33.1556 34.5455C34.1597 34.5455 34.9737 33.7315 34.9737 32.7273C34.9737 31.7232 34.1597 30.9092 33.1556 30.9092C32.1514 30.9092 31.3374 31.7232 31.3374 32.7273C31.3374 33.7315 32.1514 34.5455 33.1556 34.5455Z" fill="#CF0A2C"/>
<path d="M27.701 34.5455C28.7051 34.5455 29.5191 33.7315 29.5191 32.7273C29.5191 31.7232 28.7051 30.9092 27.701 30.9092C26.6968 30.9092 25.8828 31.7232 25.8828 32.7273C25.8828 33.7315 26.6968 34.5455 27.701 34.5455Z" fill="#CF0A2C"/>
</g>
<defs>
<clipPath id="clip0_453_1754">
<rect width="40" height="40" fill="white" transform="translate(0.428223)"/>
</clipPath>
</defs>
</svg>
