<svg width="144" height="29" viewBox="0 0 144 29" fill="none" xmlns="http://www.w3.org/2000/svg">
<path d="M15.975 8.03678e-05C15.4752 0.0444284 14.1244 0.352823 14.1244 0.352823C11.0797 1.14217 10.3596 3.91348 10.3596 3.91348C10.2109 4.37949 10.1433 4.85708 10.1235 5.30703V5.91943C10.1639 6.8656 10.3737 7.5721 10.3737 7.5721C11.3907 12.0954 16.3911 19.5277 17.4658 21.0891C17.5421 21.1649 17.6031 21.1375 17.6031 21.1375C17.7191 21.1054 17.71 20.9938 17.71 20.9938L17.7122 20.9944C19.3675 4.39897 15.975 8.03678e-05 15.975 8.03678e-05ZM21.4445 8.03678e-05C21.4445 8.03678e-05 18.0371 4.4013 19.6937 21.0063H19.6959C19.7087 21.1117 19.7833 21.1337 19.7833 21.1337C19.8941 21.1768 19.9509 21.07 19.9509 21.07L19.9515 21.071C21.0538 19.4699 26.0257 12.0779 27.0382 7.57202C27.0382 7.57202 27.5872 5.39115 27.0572 3.91339C27.0572 3.91339 26.3046 1.09917 23.2561 0.355467C23.2561 0.355467 22.3775 0.13185 21.4445 8.03678e-05ZM5.72808 4.98204C5.72808 4.98204 2.82712 7.7438 2.68293 10.6717H2.68408V11.1153C2.68629 11.1487 2.68797 11.1825 2.69007 11.2166C2.81503 13.5775 4.58576 14.9748 4.58576 14.9748C7.43878 17.7639 14.347 21.2851 15.9523 22.0841C15.9748 22.0926 16.0577 22.1197 16.1064 22.058C16.1064 22.058 16.1318 22.0387 16.1433 22.0041V21.9305C16.1422 21.9263 16.14 21.9221 16.1379 21.9175C11.7417 12.2847 5.72808 4.98204 5.72808 4.98204ZM31.6843 4.98204C31.6843 4.98204 25.6883 12.2619 21.2941 21.8751L21.2958 21.8746C21.2958 21.8746 21.2439 21.986 21.3278 22.058C21.3278 22.058 21.3529 22.077 21.3875 22.0847H21.4483C21.4592 22.0815 21.4709 22.0773 21.4825 22.0694C23.1314 21.2485 29.9861 17.7514 32.8257 14.9753C32.8257 14.9753 34.6239 13.5268 34.7181 11.2012C34.9258 7.97124 31.6843 4.98204 31.6843 4.98204ZM37.081 14.5453C37.081 14.5453 27.3057 19.8072 22.2515 23.2268L22.2532 23.2284C22.2532 23.2284 22.1615 23.2886 22.1935 23.3966C22.1935 23.3966 22.2414 23.4837 22.3112 23.4837C24.1216 23.4869 30.9721 23.4951 31.1439 23.463C31.1439 23.463 32.0297 23.4275 33.1242 23.0057C33.1242 23.0057 35.5609 22.2287 36.8266 19.4538C36.8266 19.4538 37.4049 18.2935 37.4133 16.6634V16.5943C37.4091 15.9657 37.3207 15.2697 37.081 14.5453ZM0.328648 14.5699C-0.560757 17.3316 0.636604 19.557 0.638538 19.5605C1.88634 22.2051 4.26819 23.0063 4.26819 23.0063C5.36787 23.4595 6.4678 23.4908 6.4678 23.4908C6.63954 23.5223 13.3075 23.494 15.0942 23.4855C15.1698 23.485 15.2114 23.4087 15.2114 23.4087C15.2167 23.4003 15.2213 23.3919 15.2234 23.3842V23.3151C15.2086 23.2689 15.1691 23.2362 15.1691 23.2362L15.1702 23.2357C10.1185 19.8172 0.328648 14.5699 0.328648 14.5699ZM14.8901 24.3346L3.39062 24.739C4.6377 26.9688 6.73791 28.7018 8.92573 28.1696C10.4355 27.791 13.856 25.3979 14.9851 24.5893L14.9813 24.5862C15.0691 24.5071 15.0378 24.4435 15.0378 24.4435C15.0089 24.34 14.8901 24.3401 14.8901 24.3401L14.8901 24.3346ZM22.5065 24.343L22.5054 24.3472C22.5054 24.3472 22.4044 24.3601 22.3762 24.4359C22.3762 24.4359 22.3517 24.5396 22.4196 24.591L22.4185 24.5921C23.5194 25.384 26.857 27.7244 28.4648 28.1789C28.4648 28.1789 28.7084 28.262 29.1166 28.2768H29.3619C30.4392 28.2389 32.3158 27.6838 34.0211 24.745L22.5065 24.343Z" fill="#CF0A2C"/>
<path d="M75.9936 7.27122V16.6123C75.9936 19.2655 74.6682 20.6813 72.2598 20.6813C69.8378 20.6813 68.5045 19.2247 68.5045 16.499V7.28145H65.1724V16.6123C65.1724 21.2034 67.7397 23.8343 72.2158 23.8343C76.7344 23.8343 79.3256 21.1529 79.3256 16.4777V7.27122H75.9936ZM88.2528 7.27122L81.0159 23.5799H84.4171L85.814 20.4214L85.914 20.1847H93.4321L94.9066 23.5799H98.4003L91.2307 7.36776L91.1663 7.27118L88.2528 7.27122ZM108.065 7.27122L104.335 18.4927L100.705 7.2796H97.1594L102.883 23.5901H105.643L109.379 12.8755L113.113 23.5901H115.896L121.606 7.2796H118.15L114.513 18.4927L110.783 7.27122H108.065ZM140.672 7.27122V23.566H143.96V7.27122H140.672ZM46.3604 7.27219V23.5893H49.6933V16.9622H57.2189V23.5893H60.5528V7.27219H57.2189V13.8547H49.6933V7.27219H46.3604ZM124.293 7.28322V23.5781H136.698V20.607H127.581V16.5667H133.644V13.5947H127.581V10.2543H136.38V7.28322H124.293ZM89.6646 11.4006L92.0408 16.8637H92.0325L92.1941 17.2406H87.1531L87.3128 16.8637L89.6646 11.4006Z" fill="#333333"/>
</svg>
