<svg width="75" height="50" viewBox="0 0 75 50" fill="none" xmlns="http://www.w3.org/2000/svg">
<path d="M64.7798 37.9642H10.3841C9.96066 37.9642 9.61865 37.6222 9.61865 37.1987V0.765464C9.61865 0.342012 9.96066 0 10.3841 0H64.7961C65.2196 0 65.5616 0.342012 65.5616 0.765464V37.1987C65.5453 37.6384 65.2033 37.9642 64.7798 37.9642ZM11.1333 36.4495H64.0144V1.53094H11.1333V36.4495Z" fill="#231F20"/>
<path d="M73.9002 50.0001H1.26394C0.921933 50.0001 0.628782 49.7883 0.531065 49.4626C0.449635 49.1857 0.531066 48.8763 0.742786 48.6809C1.23137 48.1271 6.39408 41.2704 9.76531 36.7427C10.0096 36.4007 10.4982 36.3356 10.8239 36.5962C11.1659 36.8405 11.2311 37.329 10.9705 37.6548C6.23122 43.9903 3.95116 47.0196 2.82741 48.4691H72.3041C71.1804 47.0196 68.884 43.9903 64.161 37.6548C63.9168 37.3128 63.9819 36.8405 64.3076 36.5962C64.6496 36.3519 65.1219 36.417 65.3662 36.7427C68.7375 41.2541 73.8839 48.1271 74.3887 48.6809C74.6005 48.8763 74.6819 49.1694 74.6005 49.4626C74.519 49.7883 74.2259 50.0001 73.9002 50.0001Z" fill="#231F20"/>
<path d="M37.5818 7.49182C38.2564 7.49182 38.8033 6.94494 38.8033 6.27033C38.8033 5.59571 38.2564 5.04883 37.5818 5.04883C36.9072 5.04883 36.3604 5.59571 36.3604 6.27033C36.3604 6.94494 36.9072 7.49182 37.5818 7.49182Z" fill="#231F20"/>
<path d="M54.7804 45.3908H20.3841C19.9607 45.3908 19.6187 45.0488 19.6187 44.6253C19.6187 44.2019 19.9607 43.8599 20.3841 43.8599H54.7804C55.2039 43.8599 55.5459 44.2019 55.5459 44.6253C55.5459 45.0488 55.2039 45.3908 54.7804 45.3908Z" fill="#231F20"/>
</svg>
