<svg width="41" height="40" viewBox="0 0 41 40" fill="none" xmlns="http://www.w3.org/2000/svg">
<g clip-path="url(#clip0_282_30989)">
<path d="M24.2306 12.2741C22.3611 10.4046 19.3193 10.4045 17.4498 12.274C16.5441 13.1796 16.0454 14.3837 16.0454 15.6644C16.0454 16.9451 16.5441 18.1492 17.4498 19.0548C18.0484 19.6544 18.7962 20.0835 19.616 20.2978V37.2467C19.616 37.9228 20.1641 38.4709 20.8402 38.4709C21.5163 38.4709 22.0644 37.9228 22.0644 37.2467V20.2979C22.8842 20.0836 23.6319 19.6545 24.2306 19.0549C25.1363 18.1492 25.6349 16.9452 25.6349 15.6645C25.6349 14.3838 25.1363 13.1797 24.2306 12.2741ZM22.4993 17.3235C21.5845 18.2383 20.096 18.2384 19.1812 17.3235C18.738 16.8803 18.494 16.2913 18.494 15.6645C18.494 15.0378 18.7381 14.4485 19.1812 14.0054C19.6385 13.5481 20.2395 13.3193 20.8403 13.3193C21.441 13.3193 22.042 13.548 22.4993 14.0054C22.9425 14.4486 23.1865 15.0378 23.1865 15.6645C23.1865 16.2912 22.9424 16.8804 22.4993 17.3235ZM29.8613 7.15986C29.3833 6.68174 28.6081 6.68174 28.1299 7.15986C27.6518 7.63791 27.6518 8.41307 28.1299 8.89119C31.8647 12.626 31.8647 18.703 28.1299 22.4377C27.6518 22.9157 27.6518 23.6909 28.1299 24.169C28.2435 24.2829 28.3784 24.3731 28.527 24.4347C28.6755 24.4962 28.8348 24.5278 28.9956 24.5276C29.1564 24.5278 29.3156 24.4962 29.4642 24.4347C29.6127 24.3731 29.7476 24.2829 29.8612 24.169C34.5506 19.4796 34.5507 11.8493 29.8613 7.15986Z" fill="#CF0A2C"/>
<path d="M35.1339 1.88759C34.6559 1.40954 33.8807 1.40954 33.4026 1.88759C32.9245 2.36563 32.9245 3.14079 33.4026 3.61892C40.0445 10.2609 40.0445 21.0681 33.4026 27.7102C32.9245 28.1882 32.9245 28.9634 33.4026 29.4415C33.6416 29.6806 33.9549 29.8001 34.2682 29.8001C34.5815 29.8001 34.8948 29.6806 35.1338 29.4415C38.8138 25.7615 40.8405 20.8688 40.8405 15.6645C40.8405 10.4602 38.8138 5.56751 35.1339 1.88759ZM13.5506 8.89118C14.0288 8.41314 14.0288 7.63798 13.5506 7.15985C13.0726 6.68181 12.2974 6.68181 11.8193 7.15985C7.12985 11.8493 7.12993 19.4796 11.8193 24.1689C12.0584 24.408 12.3716 24.5275 12.6849 24.5275C12.9982 24.5275 13.3116 24.408 13.5506 24.1689C14.0287 23.6909 14.0287 22.9157 13.5506 22.4376C9.81579 18.7028 9.81579 12.6259 13.5506 8.89118Z" fill="#CF0A2C"/>
<path d="M8.27822 3.61892C8.75635 3.14087 8.75635 2.36571 8.27822 1.88759C7.80018 1.40954 7.02502 1.40954 6.54689 1.88759C2.86697 5.56751 0.840332 10.4602 0.840332 15.6644C0.840332 20.8685 2.86697 25.7613 6.54697 29.4413C6.66052 29.5551 6.79544 29.6454 6.944 29.7069C7.09255 29.7685 7.2518 29.8001 7.4126 29.7999C7.57339 29.8001 7.73264 29.7685 7.8812 29.7069C8.02975 29.6454 8.16468 29.5551 8.27822 29.4413C8.75635 28.9632 8.75635 28.1881 8.27822 27.7099C1.63635 21.068 1.63635 10.2608 8.27822 3.61892Z" fill="#CF0A2C"/>
</g>
<defs>
<clipPath id="clip0_282_30989">
<rect width="40" height="40" fill="white" transform="translate(0.840332)"/>
</clipPath>
</defs>
</svg>
