<svg width="27" height="50" viewBox="0 0 27 50" fill="none" xmlns="http://www.w3.org/2000/svg">
<path d="M22.0935 50H4.90656C2.57018 50 0.671875 48.1016 0.671875 45.7652V4.23481C0.671875 1.89836 2.57018 0 4.90656 0H22.0935C24.4299 0 26.3282 1.89836 26.3282 4.23481V45.7798C26.3282 48.1016 24.4299 50 22.0935 50ZM4.90656 1.35806C3.3295 1.35806 2.02989 2.64311 2.02989 4.23481V45.7798C2.02989 47.3569 3.3149 48.6565 4.90656 48.6565H22.0935C23.6706 48.6565 24.9702 47.3715 24.9702 45.7798V4.23481C24.9702 2.65771 23.6852 1.35806 22.0935 1.35806H4.90656Z" fill="#231F20"/>
<path d="M16.7197 5.37383H10.3093C8.46938 5.37383 6.96533 3.86974 6.96533 2.02979V0.686329C6.96533 0.306656 7.27198 0 7.65164 0H19.4065C19.7862 0 20.0929 0.306656 20.0929 0.686329V2.02979C20.0637 3.86974 18.5596 5.37383 16.7197 5.37383ZM8.30875 1.35806V2.02979C8.30875 3.125 9.1995 4.01577 10.2947 4.01577H16.7051C17.8003 4.01577 18.691 3.125 18.691 2.02979V1.35806H8.30875Z" fill="#231F20"/>
<path d="M19.4942 46.0865H7.345C6.96534 46.0865 6.65869 45.7799 6.65869 45.4002C6.65869 45.0205 6.96534 44.7139 7.345 44.7139H19.4942C19.8738 44.7139 20.1805 45.0205 20.1805 45.4002C20.1659 45.7799 19.8592 46.0865 19.4942 46.0865Z" fill="#231F20"/>
</svg>
