<svg width="22" height="20" viewBox="0 0 22 20" fill="none" xmlns="http://www.w3.org/2000/svg">
<path d="M20.8358 18.9119L15.6374 13.8308C16.9987 12.3616 17.8351 10.4187 17.8351 8.28068C17.8345 3.7071 14.0421 0 9.36352 0C4.68499 0 0.892578 3.7071 0.892578 8.28068C0.892578 12.8543 4.68499 16.5614 9.36352 16.5614C11.385 16.5614 13.239 15.8668 14.6953 14.7122L19.9138 19.8134C20.1681 20.0622 20.5809 20.0622 20.8352 19.8134C20.8957 19.7547 20.9437 19.6846 20.9766 19.6072C21.0094 19.5299 21.0263 19.4467 21.0264 19.3628C21.0265 19.2788 21.0096 19.1957 20.9769 19.1182C20.9441 19.0408 20.8962 18.9707 20.8358 18.9119ZM9.36352 15.2873C5.40497 15.2873 2.19595 12.1504 2.19595 8.28068C2.19595 4.41101 5.40497 1.27403 9.36352 1.27403C13.3221 1.27403 16.5311 4.41101 16.5311 8.28068C16.5311 12.1504 13.3221 15.2873 9.36352 15.2873Z" fill="#333333"/>
</svg>
