<svg width="36" height="51" viewBox="0 0 36 51" fill="none" xmlns="http://www.w3.org/2000/svg">
<path d="M4.72414 0.773928L31.6203 0.773926C33.9953 0.773926 35.9385 2.71717 35.9385 5.09225L35.9385 46.4556C35.9385 48.8307 33.9953 50.7739 31.6203 50.7739L4.72414 50.7739C2.34914 50.7739 0.405952 48.8307 0.405952 46.4556L0.405948 5.09225C0.390528 2.70175 2.33371 0.773928 4.72414 0.773928ZM31.6203 49.3396C33.2088 49.3396 34.5042 48.0441 34.5042 46.4556L34.5042 5.09225C34.5042 3.50372 33.2088 2.20823 31.6203 2.20823L4.72414 2.20824C3.13566 2.20824 1.84019 3.50373 1.84019 5.09225L1.8402 46.4556C1.8402 48.0441 3.13567 49.3396 4.72414 49.3396L31.6203 49.3396Z" fill="#231F20"/>
<path d="M1.11536 6.6494L35.2136 6.6494C35.6146 6.6494 35.9385 6.97328 35.9385 7.37427C35.9385 7.77525 35.6146 8.09912 35.2136 8.09912L1.11536 8.09912C0.714386 8.09912 0.39053 7.77526 0.39053 7.37427C0.39053 6.97328 0.714386 6.6494 1.11536 6.6494Z" fill="#231F20"/>
<path d="M1.11536 43.8955L35.2136 43.8955C35.6146 43.8955 35.9385 44.2194 35.9385 44.6204C35.9385 45.0213 35.6146 45.3452 35.2136 45.3452L1.11536 45.3452C0.714386 45.3452 0.39053 45.0214 0.39053 44.6204C0.39053 44.2194 0.714386 43.8955 1.11536 43.8955Z" fill="#231F20"/>
</svg>
