<svg width="33" height="32" viewBox="0 0 33 32" fill="none" xmlns="http://www.w3.org/2000/svg">
<path fill-rule="evenodd" clip-rule="evenodd" d="M16.5 0C7.66344 0 0.5 7.16344 0.5 16C0.5 24.8366 7.66344 32 16.5 32C25.3366 32 32.5 24.8366 32.5 16C32.5 7.16344 25.3366 0 16.5 0ZM16.0544 13.5586L16.0208 13.005C15.9201 11.5701 16.8042 10.2594 18.2032 9.75098C18.718 9.5702 19.5909 9.5476 20.1617 9.70578C20.3856 9.77357 20.8108 9.99955 21.113 10.2029L21.6614 10.5758L22.2658 10.3837C22.6015 10.282 23.0492 10.1125 23.2506 9.99955C23.4409 9.89786 23.6088 9.84136 23.6088 9.87526C23.6088 10.0673 23.1947 10.7227 22.8477 11.0842C22.3777 11.5927 22.512 11.6379 23.4633 11.2989C24.034 11.1068 24.0452 11.1068 23.9333 11.3215C23.8662 11.4345 23.5192 11.8299 23.1499 12.1915C22.5232 12.8129 22.4896 12.8807 22.4896 13.4005C22.4896 14.2027 22.1091 15.8749 21.7286 16.7901C21.0235 18.5075 19.5126 20.2814 18.0017 21.174C15.8753 22.4281 13.0438 22.7445 10.66 22.0101C9.86538 21.7615 8.5 21.1288 8.5 21.0158C8.5 20.9819 8.91409 20.9367 9.41772 20.9254C10.4697 20.9028 11.5218 20.609 12.4171 20.0893L13.0214 19.7277L12.3276 19.4905C11.3427 19.1515 10.4585 18.3719 10.2347 17.6375C10.1676 17.4002 10.1899 17.3889 10.8167 17.3889L11.4658 17.3776L10.9174 17.1177C10.2683 16.7901 9.67513 16.2364 9.38414 15.6715C9.1715 15.2647 8.9029 14.2366 8.98124 14.1575C9.00362 14.1236 9.23865 14.1914 9.50725 14.2818C10.2795 14.5642 10.3802 14.4964 9.93253 14.0219C9.09316 13.1632 8.83575 11.8864 9.23865 10.6775L9.42891 10.1351L10.1676 10.8695C11.6784 12.3497 13.4579 13.231 15.4948 13.4908L16.0544 13.5586Z" fill="#B1B1B1"/>
</svg>
