<svg width="33" height="32" viewBox="0 0 33 32" fill="none" xmlns="http://www.w3.org/2000/svg">
<path fill-rule="evenodd" clip-rule="evenodd" d="M16.5 0C7.66344 0 0.5 7.16344 0.5 16C0.5 24.8366 7.66344 32 16.5 32C25.3366 32 32.5 24.8366 32.5 16C32.5 7.16344 25.3366 0 16.5 0ZM17.8028 21.0508C17.645 21.2171 17.337 21.2507 17.337 21.2507H16.3169C16.3169 21.2507 14.0665 21.3835 12.084 19.358C9.92206 17.1481 8.01303 12.7637 8.01303 12.7637C8.01303 12.7637 7.90284 12.4761 8.02221 12.3376C8.1566 12.1811 8.52305 12.1713 8.52305 12.1713L10.9613 12.1557C10.9613 12.1557 11.1908 12.1926 11.3553 12.3114C11.4914 12.4097 11.5673 12.5924 11.5673 12.5924C11.5673 12.5924 11.9613 13.5708 12.483 14.4557C13.5022 16.1837 13.9763 16.5615 14.3219 16.3763C14.8261 16.1067 14.675 13.9338 14.675 13.9338C14.675 13.9338 14.6842 13.1455 14.4213 12.794C14.2176 12.522 13.8336 12.4425 13.6642 12.4204C13.5264 12.4024 13.7518 12.0894 14.044 11.9492C14.483 11.7387 15.2577 11.7264 16.1734 11.7354C16.8871 11.7428 17.0924 11.7862 17.3712 11.8526C18.0183 12.0058 17.9981 12.497 17.9545 13.5571C17.9414 13.8742 17.9263 14.2421 17.9263 14.6671C17.9263 14.7626 17.9235 14.8644 17.9205 14.9691C17.9054 15.5122 17.8881 16.1342 18.2527 16.3656C18.4397 16.4836 18.8963 16.3828 20.039 14.4786C20.5807 13.5757 20.9864 12.5146 20.9864 12.5146C20.9864 12.5146 21.0757 12.3253 21.2135 12.2442C21.3545 12.1615 21.5449 12.1869 21.5449 12.1869L24.1108 12.1713C24.1108 12.1713 24.8821 12.0803 25.0065 12.4228C25.1375 12.7809 24.7185 13.6183 23.6701 14.9899C22.6756 16.2914 22.1916 16.7706 22.236 17.1943C22.2685 17.504 22.5831 17.7841 23.1868 18.3338C24.447 19.4823 24.7848 20.0866 24.866 20.2318C24.8727 20.2438 24.8777 20.2527 24.8813 20.2585C25.4464 21.1786 24.2544 21.2507 24.2544 21.2507L21.9747 21.2819C21.9747 21.2819 21.4856 21.3769 20.8412 20.9426C20.5036 20.7154 20.1738 20.3441 19.8596 19.9905C19.3798 19.4506 18.9365 18.9517 18.5582 19.0696C17.923 19.2678 17.9422 20.6108 17.9422 20.6108C17.9422 20.6108 17.9472 20.8984 17.8028 21.0508Z" fill="#B1B1B1"/>
</svg>
