<svg width="23" height="50" viewBox="0 0 23 50" fill="none" xmlns="http://www.w3.org/2000/svg">
<path d="M22.9638 20.9724V18.4739C22.9638 18.0742 22.6323 17.7445 22.2184 17.7641V17.17C22.2184 15.7781 21.4627 14.3258 20.0028 13.5973C19.4896 13.2718 16.8906 11.1576 16.8906 1.91152C16.8906 0.857519 16.0231 0 14.9568 0H7.29961C6.2333 0 5.36572 0.857519 5.36572 1.91152C5.36572 11.2453 2.68018 13.3263 2.21631 13.6154C0.923632 14.2766 0.0361328 15.6212 0.0361328 17.17V32.8165C0.0361328 34.2619 0.808495 35.5302 1.96221 36.2305C2.02148 36.2811 2.08955 36.3232 2.16621 36.353C2.19814 36.3655 5.36572 37.881 5.36572 48.0884C5.36572 49.1424 6.2332 49.9999 7.29961 49.9999H14.9568C16.023 49.9999 16.8906 49.1424 16.8906 48.0884C16.8906 37.9239 20.0759 36.3604 20.108 36.3457C20.0963 36.351 20.0901 36.353 20.0901 36.353L20.0874 36.3459C21.3534 35.6761 22.2184 34.3457 22.2184 32.8165V32.2225C22.6321 32.242 22.9638 31.9125 22.9638 31.5126V29.0142C22.9638 28.6145 22.6323 28.2848 22.2184 28.3043V21.6821C22.6321 21.7018 22.9638 21.3723 22.9638 20.9724ZM6.78897 1.91152C6.78897 1.64219 7.01807 1.42314 7.29971 1.42314H14.9569C15.2385 1.42314 15.4676 1.64229 15.4676 1.91152C15.4676 5.4376 15.837 10.2082 17.7365 13.1792H4.52002C6.41943 10.2083 6.78897 5.43789 6.78897 1.91152ZM15.4675 48.0885C15.4675 48.3578 15.2385 48.5769 14.9568 48.5769H7.29961C7.01807 48.5769 6.78887 48.3577 6.78887 48.0885C6.78887 44.5687 6.4207 39.7807 4.51152 36.8074H17.7446C15.8361 39.7799 15.4675 44.5666 15.4675 48.0885ZM20.7952 32.8166C20.7952 34.2324 19.6434 35.3843 18.2276 35.3843H4.02705C2.61123 35.3843 1.45938 34.2324 1.45938 32.8166V17.1701C1.45938 15.7554 2.6124 14.6024 4.02705 14.6024C19.6818 14.7011 18.3017 14.3636 19.4929 14.9372C20.2697 15.3792 20.7952 16.2142 20.7952 17.17V32.8166Z" fill="black"/>
</svg>
